<?xml version="1.0" encoding="UTF-8"?> <svg xmlns="http://www.w3.org/2000/svg" width="320" height="32" viewBox="0 0 320 32" fill="none"><path d="M45.8967 0.721924H52.5835V30.6787H45.8967V0.721924Z" fill="white"></path><path d="M83.0533 0.721924H89.7401V30.6787H83.0533L68.7799 11.907V30.6787H62.093V0.721924H68.3517L83.0533 20.0083V0.721924Z" fill="white"></path><path d="M122.138 4.64061C124.993 7.25307 126.424 10.8906 126.424 15.5489C126.424 20.2072 125.031 23.8923 122.246 26.6043C119.46 29.3205 115.209 30.6744 109.495 30.6744H99.2529V0.721924H109.837C115.178 0.721924 119.279 2.02815 122.138 4.64493V4.64061ZM117.229 22.4477C118.872 20.9036 119.694 18.6631 119.694 15.7176C119.694 12.7721 118.872 10.51 117.229 8.92694C115.585 7.33957 113.063 6.54805 109.664 6.54805H105.935V24.7617H110.178C113.236 24.7617 115.585 23.9918 117.229 22.4477Z" fill="white"></path><path d="M133.495 0.721924H140.182V30.6787H133.495V0.721924Z" fill="white"></path><path d="M159.891 19.792L167.521 0.721924H174.762L162.72 30.6787H157.063L145.021 0.721924H152.266L159.896 19.792H159.891Z" fill="white"></path><path d="M179.605 0.721924H186.292V30.6787H179.605V0.721924Z" fill="white"></path><path d="M201.955 6.69886C201.311 7.22655 200.991 7.92724 200.991 8.80094C200.991 9.67464 201.384 10.3667 202.171 10.8814C202.959 11.3961 204.771 12.0016 207.613 12.7023C210.454 13.403 212.66 14.4541 214.235 15.8511C215.805 17.2525 216.592 19.294 216.592 21.98C216.592 24.666 215.584 26.8459 213.568 28.5155C211.553 30.185 208.906 31.0241 205.619 31.0241C200.874 31.0241 196.605 29.2681 192.803 25.7516L196.791 20.8641C200.017 23.6928 203.006 25.1072 205.748 25.1072C206.977 25.1072 207.941 24.8433 208.642 24.3156C209.343 23.788 209.693 23.0743 209.693 22.1746C209.693 21.275 209.321 20.5613 208.577 20.0336C207.833 19.506 206.363 18.9696 204.161 18.4246C200.675 17.5985 198.127 16.5172 196.51 15.1894C194.896 13.8615 194.087 11.7767 194.087 8.9307C194.087 6.08468 195.108 3.8961 197.15 2.35198C199.191 0.80786 201.743 0.0379639 204.801 0.0379639C206.799 0.0379639 208.802 0.379659 210.8 1.06738C212.799 1.75509 214.542 2.72395 216.03 3.9826L212.643 8.87014C210.043 6.89783 207.357 5.91167 204.585 5.91167C203.469 5.91167 202.591 6.17551 201.951 6.70319L201.955 6.69886Z" fill="white"></path><path d="M223.577 0.721924H230.264V30.6787H223.577V0.721924Z" fill="white"></path><path d="M252.891 30.6744H239.777V0.721924H251.434C253.462 0.721924 255.21 0.964138 256.685 1.44857C258.155 1.933 259.263 2.59044 260.007 3.42089C261.347 4.965 262.022 6.70808 262.022 8.65013C262.022 10.9944 261.265 12.7375 259.751 13.8794C259.237 14.2816 258.882 14.5282 258.679 14.6276C258.475 14.7271 258.121 14.8915 257.606 15.1207C259.462 15.523 260.941 16.3577 262.044 17.6294C263.142 18.901 263.692 20.4797 263.692 22.3655C263.692 24.4503 262.978 26.2929 261.551 27.8932C259.894 29.7487 257.009 30.6787 252.896 30.6787L252.891 30.6744ZM246.464 12.85H249.635C251.49 12.85 252.87 12.651 253.769 12.2487C254.669 11.8508 255.119 10.9858 255.119 9.65359C255.119 8.32141 254.704 7.4477 253.878 7.0195C253.047 6.5913 251.65 6.37504 249.678 6.37504H246.464V12.8456V12.85ZM246.464 25.0212H251.049C252.961 25.0212 254.397 24.7877 255.357 24.3162C256.313 23.8448 256.793 22.9148 256.793 21.5308C256.793 20.1467 256.287 19.2297 255.27 18.7885C254.254 18.3474 252.636 18.1224 250.404 18.1224H246.46V25.0212H246.464Z" fill="white"></path><path d="M271.446 30.6744V0.721924H278.132V24.7228H290.905V30.6787H271.45L271.446 30.6744Z" fill="white"></path><path d="M319.529 0.721924V6.67781H304.615V12.85H318.028V18.5506H304.615V24.766H320V30.6787H297.928V0.721924H319.529Z" fill="white"></path><path d="M16.4303 30.8179H9.15524V22.5567C9.15524 19.4122 11.7288 16.8344 14.8776 16.8344H16.4347V30.8179H16.4303Z" fill="#EE2324"></path><path d="M16.4316 30.8179H23.7067V22.5567C23.7067 19.4122 21.1332 16.8344 17.9844 16.8344H16.4273V30.8179H16.4316Z" fill="#57C6D7"></path><path d="M16.4285 14.2903C12.6482 14.2903 9.5816 11.2237 9.5816 7.44344C9.5816 3.66317 12.6482 0.596558 16.4285 0.596558V14.2947V14.2903Z" fill="#EE2324"></path><path d="M32.8576 30.8179H25.5825V22.5567C25.5825 19.4122 28.1561 16.8344 31.3049 16.8344H32.862V30.8179H32.8576Z" fill="#194379"></path><path d="M32.8558 14.2903C29.0755 14.2903 26.0089 11.2237 26.0089 7.44344C26.0089 3.66317 29.0755 0.596558 32.8558 0.596558V14.2947V14.2903Z" fill="#194379"></path><path d="M16.4273 14.2903C20.2076 14.2903 23.2742 11.2237 23.2742 7.44344C23.2742 3.66317 20.2076 0.596558 16.4273 0.596558V14.2947V14.2903Z" fill="#57C6D7"></path><path d="M0 30.8179H7.27509V22.5567C7.27509 19.4122 4.70156 16.8344 1.55277 16.8344H0V30.8179Z" fill="#57C6D7"></path><path d="M0 14.2903C3.78028 14.2903 6.84689 11.2237 6.84689 7.44344C6.84689 3.65884 3.78028 0.596558 0 0.596558V14.2947V14.2903Z" fill="#57C6D7"></path></svg> 